<?xml version="1.0" encoding="UTF-8" standalone="no"?>
<svg width="16px" height="16px" viewBox="0 0 16 16" version="1.1" xmlns="http://www.w3.org/2000/svg" xmlns:xlink="http://www.w3.org/1999/xlink" xmlns:sketch="http://www.bohemiancoding.com/sketch/ns">
    <!-- Generator: Sketch 3.3 (11970) - http://www.bohemiancoding.com/sketch -->
    <title>in</title>
    <desc>Created with Sketch.</desc>
    <defs></defs>
    <g id="Page" stroke="none" stroke-width="1" fill="none" fill-rule="evenodd" sketch:type="MSPage">
        <g id="Desktop-16:9" sketch:type="MSArtboardGroup" transform="translate(-276.000000, -532.000000)">
            <g id="intro" sketch:type="MSLayerGroup" transform="translate(80.000000, 327.000000)">
                <g id="in" transform="translate(184.000000, 193.000000)" sketch:type="MSShapeGroup">
                    <rect id="Rectangle-2" opacity="0" fill="#FFFFFF" x="0" y="0" width="40" height="40"></rect>
                    <path d="M25.6329546,25.6337778 L23.2619094,25.6337778 L23.2619094,21.9208889 C23.2619094,21.0355556 23.245021,19.8964444 22.0286103,19.8964444 C20.7935335,19.8964444 20.6050943,20.8604444 20.6050943,21.8568889 L20.6050943,25.6337778 L18.2349379,25.6337778 L18.2349379,17.9986667 L20.5095414,17.9986667 L20.5095414,19.0417778 L20.5424294,19.0417778 C20.858865,18.4413333 21.6335102,17.8084444 22.7877003,17.8084444 C25.188967,17.8084444 25.6329546,19.3893333 25.6329546,21.4457778 L25.6329546,25.6337778 L25.6329546,25.6337778 Z M15.5594567,16.9542222 C14.7968112,16.9542222 14.182606,16.3377778 14.182606,15.5782222 C14.182606,14.8195556 14.7968112,14.2026667 15.5594567,14.2026667 C16.3185467,14.2026667 16.934974,14.8195556 16.934974,15.5782222 C16.934974,16.3377778 16.3185467,16.9542222 15.5594567,16.9542222 L15.5594567,16.9542222 Z M14.3710452,17.9986667 L16.7465348,17.9986667 L16.7465348,25.6337778 L14.3710452,25.6337778 L14.3710452,17.9986667 Z M26.8146996,12 L13.1799672,12 C12.5288742,12 12,12.5164444 12,13.1528889 L12,26.8453333 C12,27.4826667 12.5288742,28 13.1799672,28 L26.8146996,28 C27.4671259,28 28,27.4826667 28,26.8453333 L28,13.1528889 C28,12.5164444 27.4671259,12 26.8146996,12 L26.8146996,12 Z" id="Linkedin" fill="#1A1918"></path>
                </g>
            </g>
        </g>
    </g>
</svg>