<?xml version="1.0" encoding="UTF-8" standalone="no"?>
<svg width="16px" height="13px" viewBox="0 0 16 13" version="1.1" xmlns="http://www.w3.org/2000/svg" xmlns:xlink="http://www.w3.org/1999/xlink" xmlns:sketch="http://www.bohemiancoding.com/sketch/ns">
    <!-- Generator: Sketch 3.3 (11970) - http://www.bohemiancoding.com/sketch -->
    <title>mail</title>
    <desc>Created with Sketch.</desc>
    <defs></defs>
    <g id="Page" stroke="none" stroke-width="1" fill="none" fill-rule="evenodd" sketch:type="MSPage">
        <g id="Desktop-16:9" sketch:type="MSArtboardGroup" transform="translate(-468.000000, -534.000000)">
            <g id="intro" sketch:type="MSLayerGroup" transform="translate(80.000000, 327.000000)">
                <g id="mail" transform="translate(376.000000, 193.000000)" sketch:type="MSShapeGroup">
                    <rect id="Rectangle-7" opacity="0" fill="#FFFFFF" x="0" y="0" width="40" height="40"></rect>
                    <rect id="Rectangle-6" stroke="#000000" x="12" y="14" width="16" height="12.4444444"></rect>
                    <g id="smiley" transform="translate(15.000000, 17.000000)" fill="#000000">
                        <ellipse id="Oval" cx="1" cy="1.5" rx="1" ry="1.5"></ellipse>
                        <ellipse id="Oval" cx="9" cy="1.5" rx="1" ry="1.5"></ellipse>
                        <path d="M5.00091408,7 C6.65447898,7 8,5.8224 8,4.3752 C8,4.168 7.80850091,4 7.57129799,4 C7.33409506,4 7.14259598,4.1676 7.14259598,4.3752 C7.14259598,5.4092 6.18190128,6.2504 5,6.2504 C3.81809872,6.2504 2.85740402,5.4096 2.85740402,4.3752 C2.85740402,4.168 2.66590494,4 2.42870201,4 C2.19149909,4 2,4.1676 2,4.3752 C2.00182815,5.8224 3.34734918,7 5.00091408,7 L5.00091408,7 Z" id="Shape"></path>
                    </g>
                </g>
            </g>
        </g>
    </g>
</svg>