<?xml version="1.0" encoding="UTF-8" standalone="no"?>
<svg width="16px" height="13px" viewBox="0 0 16 13" version="1.1" xmlns="http://www.w3.org/2000/svg" xmlns:xlink="http://www.w3.org/1999/xlink" xmlns:sketch="http://www.bohemiancoding.com/sketch/ns">
    <!-- Generator: Sketch 3.3 (11970) - http://www.bohemiancoding.com/sketch -->
    <title>tw</title>
    <desc>Created with Sketch.</desc>
    <defs></defs>
    <g id="Page" stroke="none" stroke-width="1" fill="none" fill-rule="evenodd" sketch:type="MSPage">
        <g id="Desktop-16:9" sketch:type="MSArtboardGroup" transform="translate(-324.000000, -534.000000)">
            <g id="intro" sketch:type="MSLayerGroup" transform="translate(80.000000, 327.000000)">
                <g id="tw" transform="translate(232.000000, 193.000000)" sketch:type="MSShapeGroup">
                    <rect id="Rectangle-3" opacity="0" fill="#FFFFFF" x="0" y="0" width="40" height="40"></rect>
                    <path d="M17.0319324,26.8780488 C15.1781704,26.8780488 13.452694,26.3398646 12,25.4174453 C12.2568053,25.44747 12.518117,25.4628302 12.7830572,25.4628302 C14.3209627,25.4628302 15.7363766,24.9430782 16.859812,24.0711445 C15.4233878,24.0448873 14.2111123,23.1049633 13.7934233,21.8133213 C13.993811,21.8512869 14.199466,21.8716318 14.4109733,21.8716318 C14.7103844,21.8716318 15.0003731,21.8319273 15.2758477,21.7576191 C13.7741102,21.458995 12.642657,20.1449793 12.642657,18.5697835 C12.642657,18.5561043 12.642657,18.5424831 12.6428911,18.5289198 C13.0855115,18.7724213 13.591631,18.9186614 14.1297633,18.9355285 C13.2489703,18.3525391 12.6694027,17.3574346 12.6694027,16.2295373 C12.6694027,15.6337382 12.8312813,15.0752671 13.1138374,14.5951036 C14.7328578,16.5620117 17.1516149,17.85632 19.8797908,17.9918949 C19.8238414,17.7539578 19.7947547,17.5058192 19.7947547,17.251015 C19.7947547,15.4556186 21.2645378,14 23.0774498,14 C24.0215663,14 24.8746772,14.3948423 25.4734994,15.0266943 C26.2212078,14.88086 26.9237353,14.6102898 27.5579648,14.2377632 C27.3128644,14.9969014 26.7924065,15.634028 26.1146348,16.0364054 C26.7786532,15.9578079 27.4113025,15.7830502 28,15.5244784 C27.5598961,16.1764435 27.0033286,16.7490575 26.3620176,17.207427 C26.3683383,17.3468274 26.3714986,17.4870393 26.3714986,17.6280047 C26.3714986,21.9241461 23.0697831,26.8780488 17.0319324,26.8780488" id="Twitter" fill="#000000"></path>
                </g>
            </g>
        </g>
    </g>
</svg>