<?xml version="1.0" encoding="UTF-8" standalone="no"?>
<svg width="16px" height="16px" viewBox="0 0 16 16" version="1.1" xmlns="http://www.w3.org/2000/svg" xmlns:xlink="http://www.w3.org/1999/xlink" xmlns:sketch="http://www.bohemiancoding.com/sketch/ns">
    <!-- Generator: Sketch 3.3 (11970) - http://www.bohemiancoding.com/sketch -->
    <title>pn</title>
    <desc>Created with Sketch.</desc>
    <defs></defs>
    <g id="Page" stroke="none" stroke-width="1" fill="none" fill-rule="evenodd" sketch:type="MSPage">
        <g id="Desktop-16:9" sketch:type="MSArtboardGroup" transform="translate(-372.000000, -532.000000)">
            <g id="intro" sketch:type="MSLayerGroup" transform="translate(80.000000, 327.000000)">
                <g id="pn" transform="translate(280.000000, 193.000000)" sketch:type="MSShapeGroup">
                    <rect id="Rectangle-4" opacity="0" fill="#FFFFFF" x="0" y="0" width="40" height="40"></rect>
                    <path d="M20,12 C15.5817332,12 12,15.5817479 12,20.0000328 C12,23.3891424 14.1085841,26.2838988 17.084529,27.4495673 C17.0146102,26.8166222 16.9514471,25.8457565 17.1123391,25.1546329 C17.2576207,24.5304113 18.0504058,21.1780978 18.0504058,21.1780978 C18.0504058,21.1780978 17.8110683,20.6989616 17.8110683,19.9904566 C17.8110683,18.878113 18.4558826,18.0476103 19.2586374,18.0476103 C19.9411659,18.0476103 20.2708207,18.5601318 20.2708207,19.1745149 C20.2708207,19.860916 19.8338608,20.8871398 19.6082971,21.8380661 C19.4198573,22.6345275 20.0076084,23.2839357 20.7929163,23.2839357 C22.2149053,23.2839357 23.3078298,21.7844789 23.3078298,19.6203969 C23.3078298,17.7049672 21.9315569,16.3656816 19.9661556,16.3656816 C17.6899238,16.3656816 16.3538575,18.0730592 16.3538575,19.8374348 C16.3538575,20.5250165 16.6187751,21.2623156 16.949217,21.6631371 C17.0145446,21.74237 17.0241207,21.8117644 17.0046405,21.8925059 C16.9439698,22.145356 16.8089858,22.6887706 16.7825531,22.7998803 C16.7476593,22.9463431 16.6665246,22.9773673 16.5150119,22.9068579 C15.5157498,22.4416924 14.8911372,20.9808682 14.8911372,19.8075912 C14.8911372,17.2840095 16.7247028,14.9664465 20.1769615,14.9664465 C22.9520702,14.9664465 25.1087972,16.9439245 25.1087972,19.5868147 C25.1087972,22.3440286 23.3704026,24.5628784 20.9576125,24.5628784 C20.1468558,24.5628784 19.3848323,24.141724 19.1239813,23.6442225 C19.1239813,23.6442225 18.7228335,25.171752 18.6256293,25.5459439 C18.4449291,26.2408061 17.9573994,27.1118435 17.6312208,27.6431895 C18.3797983,27.8749851 19.1752726,28 20,28 C24.4182668,28 28,24.4183177 28,20.0000328 C28,15.5817479 24.4182668,12 20,12" id="Pint" fill="#000000"></path>
                </g>
            </g>
        </g>
    </g>
</svg>